<?xml version="1.0" encoding="UTF-8"?>
<svg xmlns="http://www.w3.org/2000/svg" xmlns:xlink="http://www.w3.org/1999/xlink" width="181.617pt" height="68.231pt" viewBox="0 0 181.617 68.231" version="1.1">
<defs>
<clipPath id="clip1">
  <path d="M 0 0 L 181.617188 0 L 181.617188 68.230469 L 0 68.230469 Z M 0 0 "/>
</clipPath>
</defs>
<g id="surface1">
<g clip-path="url(#clip1)" clip-rule="nonzero">
<path style="fill:none;stroke-width:0.19925;stroke-linecap:butt;stroke-linejoin:miter;stroke:rgb(0%,0%,0%);stroke-opacity:1;stroke-miterlimit:10;" d="M 0.0015625 -0.0018125 L 181.419531 -0.0018125 M 0.0015625 22.677875 L 181.419531 22.677875 M 0.0015625 45.353656 L 181.419531 45.353656 M 0.0015625 68.025531 L 181.419531 68.025531 M 0.0015625 -0.0018125 L 0.0015625 68.033344 M 22.677344 -0.0018125 L 22.677344 68.033344 M 45.353125 -0.0018125 L 45.353125 68.033344 M 68.032813 -0.0018125 L 68.032813 68.033344 M 90.708594 -0.0018125 L 90.708594 68.033344 M 113.388281 -0.0018125 L 113.388281 68.033344 M 136.064063 -0.0018125 L 136.064063 68.033344 M 158.74375 -0.0018125 L 158.74375 68.033344 M 181.411719 -0.0018125 L 181.411719 68.033344 " transform="matrix(1,0,0,-1,0.1,68.131)"/>
</g>
</g>
</svg>
