<?xml-stylesheet type="text/css" href="tikz.css"?>
<!DOCTYPE svg PUBLIC "-//W3C//DTD SVG 1.1//EN" "http://www.w3.org/Graphics/SVG/1.1/DTD/svg11.dtd">
<!-- PDFTron PDFNet Generated! Version: 7.1.0.74195 -->
<svg id="svgRoot" version="1.1" baseProfile="Full" width="324px" height="167.1px" viewBox="0 0 324 167.1" xmlns="http://www.w3.org/2000/svg" xmlns:xlink="http://www.w3.org/1999/xlink" xmlns:cs="http://www.pdftron.com/pdf2svg" xml:space="preserve">
<defs>
</defs>
<style type="text/css">
<![CDATA[
.ps03 { stroke:#000000;fill-opacity:0.2;stroke-opacity:0.2;fill:#C0C0C0;fill-rule:nonzero; }
.ps00 { stroke:#000000;fill:none; }
.ps05 { stroke:#98B3FC;fill:none; }
.ps01 { stroke:none;fill:#000000; }
.ps02 { stroke:none;fill:#000000;fill-rule:nonzero; }
.ps04 { stroke:none;fill:none; }
.ps14 { stroke-width:0.05; }
.ps10 { stroke-width:0.3985; }
.ps11 { stroke-width:0.79701; }
.ps13 { stroke-width:0.79701;stroke-dasharray:2.9888,2.9888; }
.ps12 { stroke-width:1.1955; }
.ps20 { 
letter-spacing:0px;word-spacing:0;font-family:fnt0;font-style:normal;font-weight:normal;font-size:9.9626px; }
.ps21 { 
letter-spacing:0px;word-spacing:0;font-family:fnt1;font-style:normal;font-weight:normal;font-size:9.9626px; }
.ps22 { 
letter-spacing:0px;word-spacing:0;font-family:fnt2;font-style:normal;font-weight:normal;font-size:9.9626px; }
.ps23 { 
letter-spacing:0px;word-spacing:0;font-family:fnt3;font-style:normal;font-weight:normal;font-size:9.9626px; }
.ps24 { 
letter-spacing:0px;word-spacing:0;font-family:fnt4;font-style:normal;font-weight:normal;font-size:12.947px; }
]]>
</style>
<clipPath id="clp1" clip-rule="nonzero">
<rect x="0" y="0" width="324" height="167.1"/>
</clipPath>
<g clip-path="url(#clp1)" transform="matrix(1 0 0 -1 -0 167.095)">
<g id="q1" class="">
<g id="xfrm2" transform="matrix(1 0 0 1 5.914 0.399)">
<g id="q3" class="">
<g id="q4" class="ps10">
<g id="q5" class="">
<g id="q6" class="">
<g id="q7" class="ps11">
<path d="M243.99 160.47 C238.42 163.69 228.68 166.3 222.24 166.3 C215.8 166.3 206.06 163.69 200.48 160.47 C195.03 161.44 186.38 160.69 181.17 158.79 C175.96 156.9 168.85 151.93 165.28 147.68 C162.03 146.03 157.78 142.2 155.79 139.14 C153.8 136.08 152.03 130.64 151.84 126.99 C152.03 123.35 153.8 117.91 155.79 114.85 C157.77 111.79 162.03 107.96 165.28 106.3 C168.85 102.06 175.96 97.086 181.17 95.193 C186.38 93.302 195.03 92.55 200.48 93.515 C206.06 90.296 215.8 87.686 222.24 87.686 C228.68 87.686 238.42 90.296 243.99 93.515 C249.45 92.55 258.1 93.301 263.31 95.193 C268.52 97.085 275.63 102.06 279.19 106.3 C282.45 107.96 286.7 111.78 288.69 114.84 C290.67 117.9 292.45 123.35 292.64 126.99 C292.45 130.64 290.68 136.07 288.69 139.14 C286.7 142.2 282.45 146.03 279.19 147.68 C275.63 151.93 268.52 156.9 263.31 158.79 C258.1 160.68 249.45 161.44 243.99 160.47 Z" class="ps00 ps11"/>
</g>
<g id="q8" class="ps11">
<g id="xfrm9" transform="matrix(1 0 0 1 172.455 112.047)">
<g id="q10" class="">
<g id="xfrm11" transform="matrix(1 0 0 1 -178.369 -112.446)">
<text transform="matrix(1 0 0 -1 0 0)"><tspan x="180.11" y="-131.38" class="ps01 ps20">&#x02D9;</tspan>
<tspan x="178.37" y="-131.38" class="ps01 ps21">x</tspan>
<tspan x="186.83" y="-131.38" class="ps01 ps20">=</tspan>
<tspan x="197.35" y="-145.42" class="ps01 ps22">&#xFFFD;</tspan>
<tspan x="202.6" y="-137.45" class="ps01 ps20">0</tspan>
<tspan x="221.42" y="-137.45" class="ps01 ps20">1</tspan>
<tspan x="202.6" y="-125.5" class="ps01 ps20">2</tspan>
<tspan x="217.55" y="-125.5" class="ps01 ps23">&#x2212;</tspan>
<tspan x="225.3" y="-125.5" class="ps01 ps20">1</tspan>
<tspan x="230.28" y="-145.42" class="ps01 ps22">&#xE002;</tspan>
<tspan x="237.2" y="-131.38" class="ps01 ps21">x</tspan>
<tspan x="245.1" y="-131.38" class="ps01 ps20">+</tspan>
<tspan x="255.07" y="-145.42" class="ps01 ps22">&#xFFFD;</tspan>
<tspan x="260.33" y="-137.45" class="ps01 ps20">0</tspan>
<tspan x="260.33" y="-125.5" class="ps01 ps20">1</tspan>
<tspan x="265.31" y="-145.42" class="ps01 ps22">&#xE002;</tspan>
<tspan x="272.22" y="-131.38" class="ps01 ps21">u</tspan>
<tspan x="178.37" y="-112.45" class="ps01 ps21">y</tspan>
<tspan x="186.38" y="-112.45" class="ps01 ps20">=</tspan>
<tspan x="196.89" y="-120.52" class="ps01 ps22">&#xE003;</tspan>
<tspan x="201.05" y="-112.55" class="ps01 ps20">1</tspan>
<tspan x="215.99" y="-112.55" class="ps01 ps23">&#x2212;</tspan>
<tspan x="223.74" y="-112.55" class="ps01 ps20">0</tspan>
<tspan x="228.72" y="-112.55" class="ps01 ps21">.</tspan>
<tspan x="231.49" y="-112.55" class="ps01 ps20">5</tspan>
<tspan x="236.47" y="-120.52" class="ps01 ps22">&#xE004;</tspan>
<tspan x="242.28" y="-112.45" class="ps01 ps21">x</tspan>
</text>
</g>
</g>
</g>
</g>
</g>
<g id="q12" class="">
<g id="q13" class="ps11">
<path d="M292.36 78.773 L120.37 78.773 C119.82 78.773 119.37 78.326 119.37 77.776 L119.37 49.217 C119.37 48.667 119.82 48.221 120.37 48.221 L292.36 48.221 C292.91 48.221 293.36 48.667 293.36 49.217 L293.36 77.776 C293.36 78.326 292.91 78.773 292.36 78.773 ZM119.37 48.221" class="ps00 ps11"/>
</g>
<g id="q14" class="ps11">
<g id="xfrm15" transform="matrix(1 0 0 1 122.689 61.005)">
<g id="q16" class="">
<g id="xfrm17" transform="matrix(1 0 0 1 -128.603 -61.404)">
<text transform="matrix(1 0 0 -1 0 0)"><tspan x="130.34" y="-64.033" class="ps01 ps20">&#x02D9;</tspan>
<tspan x="129.24" y="-61.404" class="ps01 ps20">&#x02C6;</tspan>
<tspan x="128.6" y="-61.404" class="ps01 ps21">x</tspan>
<tspan x="137.06" y="-61.404" class="ps01 ps20">=</tspan>
<tspan x="147.58" y="-75.451" class="ps01 ps22">&#xFFFD;</tspan>
<tspan x="152.84" y="-67.481" class="ps01 ps23">&#x2212;</tspan>
<tspan x="160.59,165.57" y="-67.481" class="ps01 ps20">16</tspan>
<tspan x="170.55" y="-67.481" class="ps01 ps21">.</tspan>
<tspan x="173.32" y="-67.481" class="ps01 ps20">0</tspan>
<tspan x="188.26" y="-67.481" class="ps01 ps20">9</tspan>
<tspan x="193.24" y="-67.481" class="ps01 ps21">.</tspan>
<tspan x="196.01" y="-67.481" class="ps01 ps20">0</tspan>
<tspan x="152.84" y="-55.526" class="ps01 ps23">&#x2212;</tspan>
<tspan x="160.59,165.57" y="-55.526" class="ps01 ps20">16</tspan>
<tspan x="170.55" y="-55.526" class="ps01 ps21">.</tspan>
<tspan x="173.32" y="-55.526" class="ps01 ps20">0</tspan>
<tspan x="188.26" y="-55.526" class="ps01 ps20">8</tspan>
<tspan x="193.24" y="-55.526" class="ps01 ps21">.</tspan>
<tspan x="196.01" y="-55.526" class="ps01 ps20">0</tspan>
<tspan x="200.99" y="-75.451" class="ps01 ps22">&#xE002;</tspan>
<tspan x="208.54" y="-61.404" class="ps01 ps20">&#x02C6;</tspan>
<tspan x="207.91" y="-61.404" class="ps01 ps21">x</tspan>
<tspan x="215.82" y="-61.404" class="ps01 ps20">+</tspan>
<tspan x="225.78" y="-75.451" class="ps01 ps22">&#xFFFD;</tspan>
<tspan x="231.04" y="-67.481" class="ps01 ps20">0</tspan>
<tspan x="231.04" y="-55.526" class="ps01 ps20">1</tspan>
<tspan x="236.02" y="-75.451" class="ps01 ps22">&#xE002;</tspan>
<tspan x="242.94" y="-61.404" class="ps01 ps21">u</tspan>
<tspan x="250.85" y="-61.404" class="ps01 ps20">+</tspan>
<tspan x="260.82" y="-75.451" class="ps01 ps22">&#xFFFD;</tspan>
<tspan x="266.08,271.06" y="-67.481" class="ps01 ps20">16</tspan>
<tspan x="276.04" y="-67.481" class="ps01 ps21">.</tspan>
<tspan x="278.81" y="-67.481" class="ps01 ps20">0</tspan>
<tspan x="266.08,271.06" y="-55.526" class="ps01 ps20">18</tspan>
<tspan x="276.04" y="-55.526" class="ps01 ps21">.</tspan>
<tspan x="278.81" y="-55.526" class="ps01 ps20">0</tspan>
<tspan x="283.79" y="-75.451" class="ps01 ps22">&#xE002;</tspan>
<tspan x="290.71" y="-61.404" class="ps01 ps21">y</tspan>
</text>
</g>
</g>
</g>
</g>
</g>
<g id="q18" class="">
<g id="q19" class="ps11">
<path d="M116.39 43.087 L74.102 43.087 C73.552 43.087 73.106 42.641 73.106 42.091 L73.106 21.406 C73.106 20.856 73.552 20.41 74.102 20.41 L116.39 20.41 C116.94 20.41 117.38 20.856 117.38 21.406 L117.38 42.091 C117.38 42.641 116.94 43.087 116.39 43.087 ZM73.106 20.41" class="ps00 ps11"/>
</g>
<g id="q20" class="ps11">
<g id="xfrm21" transform="matrix(1 0 0 1 76.425 29.257)">
<g id="q22" class="">
<g id="xfrm23" transform="matrix(1 0 0 1 -82.339 -29.656)">
<text transform="matrix(1 0 0 -1 0 0)"><tspan x="82.339" y="-29.656" class="ps01 ps23">&#x2212;</tspan>
<tspan x="91.748" y="-37.726" class="ps01 ps22">&#xE003;</tspan>
<tspan x="95.899" y="-29.755" class="ps01 ps20">6</tspan>
<tspan x="110.84" y="-29.755" class="ps01 ps20">3</tspan>
<tspan x="115.83" y="-37.726" class="ps01 ps22">&#xE004;</tspan>
</text>
</g>
</g>
</g>
</g>
</g>
<g id="q24" class="">
<g id="q25" class="ps11">
<path d="M57.965 138.33 L37.28 138.33 C36.73 138.33 36.284 137.89 36.284 137.34 L36.284 116.65 C36.284 116.1 36.73 115.65 37.28 115.65 L57.965 115.65 C58.515 115.65 58.961 116.1 58.961 116.65 L58.961 137.34 C58.961 137.89 58.515 138.33 57.965 138.33 ZM36.284 115.65" class="ps00 ps11"/>
</g>
<g id="q26" class="ps11">
<g id="xfrm27" transform="matrix(1 0 0 1 44.647 124.5)">
<g id="q28" class="">
<g id="xfrm29" transform="matrix(1 0 0 1 -50.561 -124.899)">
<text transform="matrix(1 0 0 -1 0 0)"><tspan x="50.561" y="-124.9" class="ps01 ps21">f</tspan>
</text>
</g>
</g>
</g>
</g>
</g>
<g id="q30" class="">
<path d="M99.941 126.99 C99.941 129.59 97.839 131.69 95.245 131.69 C92.651 131.69 90.549 129.59 90.549 126.99 C90.549 124.4 92.651 122.3 95.245 122.3 C97.839 122.3 99.941 124.4 99.941 126.99 ZM95.245 126.99" class="ps00"/>
<g id="q31" class="ps00">
<g id="xfrm32" transform="matrix(1 0 0 1 95.243 126.991)">
<g id="q33" class="">
</g>
</g>
</g>
</g>
<g id="q34" class="">
<path d="M0 126.99 L32.703 127.01" class="ps00 ps12"/>
<g id="q35" class="ps00 ps12">
<g id="xfrm36" transform="matrix(0.99998 0.00055 -0.00055 0.99998 32.7029 127.01192)">
<g id="q37" class="">
<path d="M3.1881 0 L-1.9128 2.5505 L0 0 L-1.9128 -2.5505" class="ps02"/>
</g>
</g>
</g>
</g>
<g id="q38" class="">
<path d="M59.369 127.02 L87.176 127.02" class="ps00 ps12"/>
<g id="q39" class="ps00 ps12">
<g id="xfrm40" transform="matrix(0.99998 -0.0001 0.0001 0.99998 87.17593 127.01607)">
<g id="q41" class="">
<path d="M3.1881 0 L-1.9128 2.5505 L0 0 L-1.9128 -2.5505" class="ps02"/>
</g>
</g>
</g>
</g>
<g id="q42" class="">
<path d="M100.16 127.02 L148.28 127.04" class="ps00 ps12"/>
<g id="q43" class="ps00 ps12">
<g id="xfrm44" transform="matrix(0.99998 0.00046 -0.00046 0.99998 148.27997 127.04066)">
<g id="q45" class="">
<path d="M3.1881 0 L-1.9128 2.5505 L0 0 L-1.9128 -2.5505" class="ps02"/>
</g>
</g>
</g>
</g>
<g id="q46" class="">
<path d="M293.08 126.99 L314.29 126.99" class="ps00 ps12"/>
<g id="q47" class="ps00 ps12">
<g id="xfrm48" transform="matrix(0.99998 0.0003 -0.0003 0.99998 314.29485 126.99217)">
<g id="q49" class="">
<path d="M3.1881 0 L-1.9128 2.5505 L0 0 L-1.9128 -2.5505" class="ps02"/>
</g>
</g>
</g>
</g>
<g id="q50" class="">
<path d="M301.61 126.99 L301.61 63.516 L296.99 63.516" class="ps00 ps12"/>
<g id="q51" class="ps00 ps12">
<g id="xfrm52" transform="matrix(-1 0 0 -1 296.99188 63.51614)">
<g id="q53" class="">
<path d="M3.1881 0 L-1.9128 2.5505 L0 0 L-1.9128 -2.5505" class="ps02"/>
</g>
</g>
</g>
</g>
<g id="q54" class="">
<path d="M111.12 126.99 L111.12 63.516 L115.8 63.516" class="ps00 ps12"/>
<g id="q55" class="ps00 ps12">
<g id="xfrm56" transform="matrix(1 0 0 1 115.8025 63.51614)">
<g id="q57" class="">
<path d="M3.1881 0 L-1.9128 2.5505 L0 0 L-1.9128 -2.5505" class="ps02"/>
</g>
</g>
</g>
</g>
<g id="q58" class="">
<path d="M206.41 47.83 L206.41 31.754 L120.99 31.754" class="ps00 ps12"/>
<g id="q59" class="ps00 ps12">
<g id="xfrm60" transform="matrix(-1 0 0 -1 120.98962 31.7544)">
<g id="q61" class="">
<path d="M3.1881 0 L-1.9128 2.5505 L0 0 L-1.9128 -2.5505" class="ps02"/>
</g>
</g>
</g>
</g>
<g id="q62" class="">
<path d="M95.262 43.493 L95.261 118.93" class="ps00 ps12"/>
<g id="q63" class="ps00 ps12">
<g id="xfrm64" transform="matrix(-2e-005 0.99998 -0.99998 -2e-005 95.26112 118.92934)">
<g id="q65" class="">
<path d="M3.1881 0 L-1.9128 2.5505 L0 0 L-1.9128 -2.5505" class="ps02"/>
</g>
</g>
</g>
</g>
<g id="q66" class="">
<g id="q67" class="">
<g id="xfrm68" transform="matrix(1 0 0 1 140.014 130.511)">
<g id="q69" class="">
<g id="xfrm70" transform="matrix(1 0 0 1 -145.928 -130.91)">
<text transform="matrix(1 0 0 -1 0 0)"><tspan x="145.93" y="-130.91" class="ps01 ps21">u</tspan>
</text>
</g>
</g>
</g>
</g>
</g>
<g id="q71" class="">
<g id="q72" class="">
<g id="xfrm73" transform="matrix(1 0 0 1 308.717 132.448)">
<g id="q74" class="">
<g id="xfrm75" transform="matrix(1 0 0 1 -314.631 -132.847)">
<text transform="matrix(1 0 0 -1 0 0)"><tspan x="314.63" y="-132.85" class="ps01 ps21">y</tspan>
</text>
</g>
</g>
</g>
</g>
</g>
<g id="q76" class="">
<g id="q77" class="">
<g id="xfrm78" transform="matrix(1 0 0 1 140.018 19.393)">
<g id="q79" class="">
<g id="xfrm80" transform="matrix(1 0 0 1 -145.932 -19.792)">
<text transform="matrix(1 0 0 -1 0 0)"><tspan x="146.57" y="-19.792" class="ps01 ps20">&#x02C6;</tspan>
<tspan x="145.93" y="-19.792" class="ps01 ps21">x</tspan>
</text>
</g>
</g>
</g>
</g>
</g>
<g id="q81" class="">
<g id="q82" class="">
<g id="xfrm83" transform="matrix(1 0 0 1 -2.593 130.511)">
<g id="q84" class="">
<g id="xfrm85" transform="matrix(1 0 0 1 -3.321 -130.91)">
<text transform="matrix(1 0 0 -1 0 0)"><tspan x="3.321" y="-130.91" class="ps01 ps21">v</tspan>
</text>
</g>
</g>
</g>
</g>
</g>
<g id="q86" class="">
<path d="M15.874 158.74 L134.93 158.74 L134.93 87.308 L301.61 87.308 L301.61 0 L15.874 0 L15.874 158.74" class="ps03 ps13"/>
</g>
<g id="q87" class="">
<g id="q88" class="">
<g id="xfrm89" transform="matrix(1 0 0 1 230.1 5.457)">
<g id="q90" class="">
<g id="xfrm91" transform="matrix(1 0 0 1 -236.014 -5.856)">
<text transform="matrix(1 0 0 -1 0 0)"><tspan x="236.01,243.35,247.77,252.76,258.29,261.06,266.04,269.91,274.34,279.88" y="-5.855" class="ps01 ps20">Regulateur</tspan>
</text>
</g>
</g>
</g>
</g>
</g>
</g>
</g>
<path class="ps04 ps10"/>
</g>
</g>
</g>
<g id="q92" class="">
<g id="xfrm93" transform="matrix(323.99 0 0 167.095 0 0)">
<clipPath id="clp2" clip-rule="nonzero">
<rect x="0" y="0" width="100" height="100"/>
</clipPath>
<g id="frm94" transform="matrix(0.01 0 0 0.01 0 0)" clip-path="url(#clp2)">
<text transform="matrix(1 0 0 -1 0 43.5267)"><tspan x="0,9.3475,18.695,28.043,31.642,38.84,46.038,49.638,53.237,57.548,64.746,71.945,75.544,82.017,89.216" y="-0" class="ps05 ps14 ps24">www.pdftron.com</tspan>
</text>
</g>
</g>
</g>
</g>
</svg>
